<svg width="19" height="15" viewBox="0 0 19 15" fill="none" xmlns="http://www.w3.org/2000/svg">
<g clip-path="url(#clip0_2884_7158)">
<path d="M18.5004 5.67078C18.5002 5.27402 18.2624 4.89866 17.8715 4.7423C17.527 4.6045 17.1512 4.67181 16.8795 4.88632C16.7076 5.0221 16.622 5.20069 16.5319 5.38856L16.5029 5.44872C16.448 5.56186 16.3603 5.731 16.2364 5.93753C15.9877 6.35199 15.5984 6.90822 15.043 7.46367C13.9445 8.56217 12.1879 9.67078 9.50006 9.67078L9.48814 9.67085C6.80712 9.66757 5.05418 8.56066 3.95734 7.46383C3.40189 6.9084 3.01267 6.35219 2.764 5.93775C2.64009 5.73123 2.55238 5.56209 2.49743 5.44896L2.46847 5.38881C2.37842 5.20094 2.29282 5.02236 2.12083 4.88658C1.84913 4.67207 1.47341 4.60477 1.12891 4.74257C0.738026 4.89892 0.50018 5.27426 0.500057 5.67101C0.499986 5.8964 0.602166 6.12447 0.698465 6.32273C0.776322 6.48302 0.891736 6.70449 1.04906 6.9667C1.27704 7.34667 1.59576 7.81673 2.01935 8.31173L0.700059 10.0708C0.368688 10.5126 0.458231 11.1394 0.900059 11.4708C1.34189 11.8022 1.96869 11.7126 2.30006 11.2708L3.4782 9.69992C4.14442 10.2129 4.94 10.6844 5.87759 11.0376L5.52992 12.4283C5.39597 12.9641 5.72173 13.507 6.25753 13.6409C6.79332 13.7749 7.33626 13.4491 7.47021 12.9133L7.81269 11.5434C8.34135 11.6256 8.90337 11.6708 9.50008 11.6708H9.50332C10.0988 11.6706 10.6598 11.6255 11.1875 11.5434L11.5299 12.9133C11.6639 13.4491 12.2068 13.7749 12.7426 13.6409C13.2784 13.507 13.6042 12.9641 13.4702 12.4283L13.1226 11.0376C14.0602 10.6845 14.8558 10.2129 15.522 9.69997L16.7001 11.2708C17.0315 11.7126 17.6583 11.8022 18.1001 11.4708C18.5419 11.1394 18.6315 10.5126 18.3001 10.0708L16.9809 8.3118C17.4045 7.81671 17.7233 7.34655 17.9513 6.96653C18.1087 6.7043 18.2241 6.48283 18.3019 6.32253C18.3982 6.12426 18.5004 5.89618 18.5004 5.67078Z" fill="#999999"/>
</g>
<defs>
<clipPath id="clip0_2884_7158">
<rect width="18" height="14" fill="white" transform="translate(0.5 0.670776)"/>
</clipPath>
</defs>
</svg>
